Coordinates
version=1
nRows=24
nColumns=22
inDegrees=yes

Units are S.I. units (second, meters, Newtons, ...)
If the header above contains a line with 'inDegrees', this indicates whether rotational values are in degrees (yes) or radians (no).

endheader
time	pelvis_tilt	pelvis_list	pelvis_rotation	pelvis_tx	pelvis_ty	pelvis_tz	hip_flexion_r	hip_adduction_r	hip_rotation_r	knee_angle_r	ankle_angle_r	subtalar_angle_r	hip_flexion_l	hip_adduction_l	hip_rotation_l	knee_angle_l	ankle_angle_l	subtalar_angle_l	lumbar_extension	lumbar_bending	lumbar_rotation
      0.01000000	     -1.40648610	      2.97961915	    183.60400202	      0.09094044	      1.02133905	      0.76756457	      0.52491334	      7.28590903	     -5.61322532	     -8.56913851	      7.81889184	     -5.27303443	      5.84497508	     -5.08021775	     -3.60488257	    -15.75411184	      9.88323754	      0.74941882	    -12.05308694	      3.59199902	      2.76210346
      0.02000000	     -1.37990354	      2.93469340	    183.62251302	      0.09084947	      1.02142535	      0.76807345	      0.60733494	      7.20453056	     -5.66022871	     -8.68585980	      7.82164497	     -5.26959683	      5.66657540	     -4.99961147	     -3.64138661	    -15.38087732	      9.79438371	      0.76715626	    -11.97845601	      3.54611727	      2.70504970
      0.03000000	     -1.39146041	      2.84337148	    183.64620751	      0.09074414	      1.02158551	      0.76866834	      0.64567589	      7.07187639	     -5.67104538	     -8.81077481	      7.89382259	     -5.26544057	      5.40174462	     -4.86400631	     -3.67124178	    -14.93115734	      9.63820804	      0.78269056	    -11.94647141	      3.45004370	      2.59694981
      0.04000000	     -1.40430489	      2.76613423	    183.65249967	      0.09062974	      1.02174589	      0.76929727	      0.68352750	      6.95081400	     -5.68280116	     -8.93414036	      7.93766549	     -5.26092197	      5.10898016	     -4.74006269	     -3.70603445	    -14.43797001	      9.50928519	      0.79536233	    -11.91233109	      3.36797467	      2.53535762
      0.05000000	     -1.42692355	      2.68999958	    183.64147986	      0.09050772	      1.02190856	      0.76992753	      0.70960663	      6.82979299	     -5.68398709	     -9.05579170	      7.98862528	     -5.25843421	      4.79115082	     -4.61717342	     -3.75937682	    -13.92634329	      9.38286658	      0.80505017	    -11.88760948	      3.28451808	      2.50185056
      0.06000000	     -1.44546690	      2.62228610	    183.61242636	      0.09042035	      1.02204809	      0.77051650	      0.74457331	      6.71854216	     -5.67199068	     -9.18070389	      8.03241270	     -5.25825465	      4.48021072	     -4.50349996	     -3.82049398	    -13.41964895	      9.26775939	      0.81125320	    -11.86544276	      3.20025324	      2.49749165
      0.07000000	     -1.47293481	      2.56110007	    183.56627477	      0.09033252	      1.02218447	      0.77106823	      0.76543207	      6.61563380	     -5.65028531	     -9.29592425	      8.07936169	     -5.25970046	      4.16570906	     -4.39805244	     -3.89757969	    -12.93039787	      9.15994350	      0.80905823	    -11.85400183	      3.11983650	      2.52088614
      0.08000000	     -1.50191341	      2.51025898	    183.50805073	      0.09028085	      1.02230656	      0.77158361	      0.78468817	      6.52513173	     -5.62010410	     -9.40491713	      8.11951712	     -5.26146157	      3.86824735	     -4.30346838	     -3.97818390	    -12.47485183	      9.06352204	      0.79881414	    -11.85291594	      3.04994755	      2.56180435
      0.09000000	     -1.53300723	      2.47091461	    183.44178444	      0.09025559	      1.02241822	      0.77206447	      0.80027865	      6.44774416	     -5.58622719	     -9.50645574	      8.15473875	     -5.26252403	      3.59098001	     -4.22215405	     -4.05915543	    -12.05902071	      8.97850773	      0.78138442	    -11.86077588	      2.99144419	      2.61155017
      0.10000000	     -1.56839905	      2.44194189	    183.37437354	      0.09024483	      1.02252485	      0.77252089	      0.80822913	      6.38280647	     -5.55061698	     -9.59946437	      8.18501360	     -5.26148707	      3.33354710	     -4.15355307	     -4.13670588	    -11.68650207	      8.90438053	      0.75807686	    -11.87684149	      2.94570590	      2.66592892
      0.11000000	     -1.60663187	      2.42360572	    183.30876011	      0.09024938	      1.02262636	      0.77295283	      0.80888723	      6.33145675	     -5.51735540	     -9.68095864	      8.21027622	     -5.25704393	      3.09787043	     -4.09803380	     -4.20725926	    -11.35590855	      8.84322670	      0.73065013	    -11.90119612	      2.91039844	      2.72221100
      0.12000000	     -1.61031144	      2.43333550	    183.26292650	      0.09028429	      1.02265449	      0.77340631	      0.85068982	      6.30695211	     -5.52470830	     -9.76061177	      8.21455959	     -5.25439643	      2.94064676	     -4.07124408	     -4.23869654	    -11.08973195	      8.83219939	      0.72110912	    -11.88479128	      2.91297595	      2.77587661
      0.13000000	     -1.68587951	      2.40902334	    183.19261074	      0.09027825	      1.02280194	      0.77381543	      0.79025688	      6.25428664	     -5.45447937	     -9.80677206	      8.25187824	     -5.23955412	      2.70064239	     -4.01468786	     -4.33064332	    -10.82612573	      8.76863695	      0.67333342	    -11.95674911	      2.87569776	      2.82199500
      0.14000000	     -1.70930642	      2.40009518	    183.14243977	      0.09033000	      1.02284967	      0.77424434	      0.80582710	      6.21387219	     -5.40882288	     -9.88268566	      8.27159460	     -5.23262436	      2.55973801	     -3.97120223	     -4.36081271	    -10.62831667	      8.73738308	      0.65639105	    -11.97159765	      2.85659783	      2.85885564
      0.15000000	     -1.72228953	      2.40314886	    183.09705958	      0.09036544	      1.02286930	      0.77468931	      0.82453430	      6.18456929	     -5.38977807	     -9.94071667	      8.28470498	     -5.22826378	      2.45587802	     -3.94050442	     -4.38048776	    -10.47807482	      8.74265163	      0.64494055	    -11.96898141	      2.85418288	      2.90886649
      0.16000000	     -1.74805842	      2.39320150	    183.04137961	      0.09041201	      1.02290840	      0.77510198	      0.82501587	      6.14450586	     -5.33730833	     -9.99297728	      8.31181190	     -5.22066421	      2.35507192	     -3.89971832	     -4.42669840	    -10.35910248	      8.72922711	      0.62339931	    -11.98486171	      2.83534675	      2.95045433
      0.17000000	     -1.77653374	      2.39053323	    182.98475272	      0.09047304	      1.02294970	      0.77550255	      0.82061578	      6.11311365	     -5.28757564	    -10.03838168	      8.33012691	     -5.21009395	      2.27767088	     -3.86868616	     -4.47687091	    -10.28640655	      8.72572269	      0.59588131	    -12.00572048	      2.82456337	      2.98809924
      0.18000000	     -1.78986492	      2.40208851	    182.95190742	      0.09056949	      1.02296556	      0.77591735	      0.83190198	      6.09725868	     -5.26527883	    -10.07520684	      8.32834345	     -5.20642173	      2.25234776	     -3.85413599	     -4.49759341	    -10.26752131	      8.73166284	      0.58601701	    -12.01234647	      2.83528682	      2.97746551
      0.19000000	     -1.80776326	      2.40171520	    182.87559459	      0.09065714	      1.02299386	      0.77626044	      0.83765243	      6.06888010	     -5.21354886	    -10.11399547	      8.34891448	     -5.19038050	      2.22480183	     -3.82947325	     -4.57268776	    -10.26799443	      8.73964738	      0.54318452	    -12.02746958	      2.82282225	      3.03884429
      0.20000000	     -1.81626382	      2.41614488	    182.82105411	      0.09078592	      1.02300851	      0.77661146	      0.85079329	      6.05802220	     -5.17587234	    -10.14006472	      8.34743971	     -5.17521839	      2.23780140	     -3.82195746	     -4.62100087	    -10.31184070	      8.75152467	      0.50435793	    -12.03959732	      2.83241372	      3.05165341
      0.21000000	     -1.82912720	      2.42954126	    182.77797810	      0.09092970	      1.02303449	      0.77696002	      0.86113622	      6.04685418	     -5.15688083	    -10.16786242	      8.34002111	     -5.17123780	      2.25565462	     -3.81266792	     -4.62450489	    -10.36897109	      8.75408427	      0.49232500	    -12.06180237	      2.84168456	      3.04344355
      0.22000000	     -1.82142540	      2.45494564	    182.72067138	      0.09108023	      1.02302078	      0.77727061	      0.89075936	      6.04909427	     -5.12723944	    -10.18728774	      8.33728021	     -5.15699871	      2.32553804	     -3.82209980	     -4.70584763	    -10.48282123	      8.79711362	      0.44259579	    -12.06378279	      2.86254514	      3.04855375
      0.23000000	     -1.81001477	      2.48126504	    182.67153540	      0.09127555	      1.02300366	      0.77757102	      0.92820117	      6.05405991	     -5.09143434	    -10.20927564	      8.32821373	     -5.14689448	      2.40985849	     -3.83143434	     -4.74015234	    -10.60799365	      8.82575445	      0.39752902	    -12.07101495	      2.88411629	      3.04379167
      0.24000000	     -1.80246383	      2.50764867	    182.62515734	      0.09148356	      1.02299244	      0.77785902	      0.96175118	      6.06035876	     -5.05900306	    -10.23022018	      8.31999044	     -5.14307163	      2.49744249	     -3.84198297	     -4.76896440	    -10.74471399	      8.85474150	      0.35716829	    -12.08976177	      2.90465329	      3.03548178
